# xmcd
#
# Track frame offsets: 
#        150
#        26165
#        43317
#        58210
#        79272
#        103375
#        121137
#        137477
#        155020
#        171502
#        191902
#        206512
#        224070
#        250407
#        272462
#        289695
#
# Disc length: 4068 seconds
#
# Revision: 0
# Processed by: cddbd v1.5.2PL0 Copyright (c) Steve Scherf et al.
# Submitted via: ExactAudioCopy v0.99pb5
#
DISCID=050fe210
DTITLE=Abba - The Visitors
DYEAR=1981
DGENRE=Classical
TTITLE0=The Visitors
TTITLE1=Head Over Heels
TTITLE2=When All Is Said and Done
TTITLE3=Soldiers
TTITLE4=I Let the Music Speak
TTITLE5=One of Us
TTITLE6=Two for the Price of One
TTITLE7=Slipping Through My Fingers
TTITLE8=Like an Angel Passing through My Room
TTITLE9=Should I Laugh or Cry
TTITLE10=No Hay a Quien Culpar
TTITLE11=Se Me Esta Escapando
TTITLE12=The Day before You Came
TTITLE13=Cassandra
TTITLE14=Under Attack
TTITLE15=You Owe Me One
EXTD=
EXTT0=
EXTT1=
EXTT2=
EXTT3=
EXTT4=
EXTT5=
EXTT6=
EXTT7=
EXTT8=
EXTT9=
EXTT10=
EXTT11=
EXTT12=
EXTT13=
EXTT14=
EXTT15=
PLAYORDER=
